<?xml version="1.0" encoding="utf-8"?>
<!-- Generator: Adobe Illustrator 23.1.1, SVG Export Plug-In . SVG Version: 6.00 Build 0)  -->
<svg version="1.1" id="Layer_1" xmlns="http://www.w3.org/2000/svg" xmlns:xlink="http://www.w3.org/1999/xlink" x="0px" y="0px"
	 viewBox="0 0 20 20" style="enable-background:new 0 0 20 20;" xml:space="preserve">
<path id="Symbols" d="M19.1,17c0.4,0.4,0.5,0.8,0.5,1.3s-0.8,1.4-1.4,1.4s-1-0.2-1.3-0.5l-7-7l-7,7c-0.4,0.4-0.8,0.5-1.3,0.5
	s-1.4-0.8-1.4-1.4c0-0.5,0.2-1,0.5-1.3l7-7l-7-7C0.5,2.7,0.3,2.2,0.3,1.7s0.8-1.4,1.4-1.4c0.5,0,1,0.2,1.3,0.5l7,7l7-7
	c0.4-0.4,0.8-0.5,1.3-0.5s1.4,0.8,1.4,1.4s-0.2,1-0.5,1.3l-7,7L19.1,17z"/>
</svg>
