<?xml version="1.0" encoding="utf-8"?>
<!-- Generator: Adobe Illustrator 22.1.0, SVG Export Plug-In . SVG Version: 6.00 Build 0)  -->
<svg version="1.1" id="Layer_1" xmlns="http://www.w3.org/2000/svg" xmlns:xlink="http://www.w3.org/1999/xlink" x="0px" y="0px"
	 viewBox="0 0 16 16" style="enable-background:new 0 0 16 16;" xml:space="preserve">
<style type="text/css">
	.st0{fill:#fff;}
</style>
<desc>Created with Sketch.</desc>
<g id="Page-1">
	<g id="Mobile-Bag-1---End-Game-Version" transform="translate(-152.000000, -1201.000000)">
		<g id="Group-15" transform="translate(0.000000, 1154.000000)">
			<g id="Group-13">
				<g id="Group-5" transform="translate(141.000000, 47.000000)">
					<path id="phone" class="st0" d="M26.4,0.8c0.2,0,0.3,0.1,0.4,0.3C26.9,1.2,27,1.3,27,1.5c0,2.6-0.7,5.1-2,7.3
						c-1.3,2.2-3,3.9-5.2,5.2c-2.3,1.3-4.7,2-7.3,2c-0.2,0-0.3-0.1-0.5-0.2c-0.1-0.1-0.2-0.3-0.3-0.4L11,12.2c0-0.2,0-0.3,0.1-0.5
						c0.1-0.2,0.2-0.3,0.4-0.3L15,9.8c0.1-0.1,0.3-0.1,0.5,0c0.2,0,0.3,0.1,0.4,0.3l1.5,1.9c1.2-0.6,2.3-1.3,3.3-2.3s1.7-2,2.3-3.3
						L21,4.8c-0.1-0.1-0.2-0.2-0.3-0.4c0-0.2,0-0.3,0-0.5l1.5-3.5c0.1-0.1,0.2-0.3,0.3-0.3C22.8,0,23,0,23.2,0L26.4,0.8z"/>
				</g>
			</g>
		</g>
	</g>
</g>
</svg>
